<?xml version="1.0" encoding="UTF-8" standalone="no"?>
<!-- Created with Inkscape (http://www.inkscape.org/) -->

<svg
   width="512"
   height="512"
   viewBox="0 0 512 512"
   version="1.1"
   id="svg1"
   xml:space="preserve"
   inkscape:version="1.3 (0e150ed, 2023-07-21)"
   sodipodi:docname="icon.svg"
   inkscape:export-filename="icon-192.png"
   inkscape:export-xdpi="36"
   inkscape:export-ydpi="36"
   xmlns:inkscape="http://www.inkscape.org/namespaces/inkscape"
   xmlns:sodipodi="http://sodipodi.sourceforge.net/DTD/sodipodi-0.dtd"
   xmlns:xlink="http://www.w3.org/1999/xlink"
   xmlns="http://www.w3.org/2000/svg"
   xmlns:svg="http://www.w3.org/2000/svg"><sodipodi:namedview
     id="namedview1"
     pagecolor="#ffffff"
     bordercolor="#000000"
     borderopacity="0.25"
     inkscape:showpageshadow="2"
     inkscape:pageopacity="0.0"
     inkscape:pagecheckerboard="0"
     inkscape:deskcolor="#d1d1d1"
     inkscape:document-units="px"
     inkscape:zoom="1.4142136"
     inkscape:cx="262.69017"
     inkscape:cy="367.69552"
     inkscape:window-width="2340"
     inkscape:window-height="1310"
     inkscape:window-x="2772"
     inkscape:window-y="20"
     inkscape:window-maximized="1"
     inkscape:current-layer="g16" /><defs
     id="defs1"><inkscape:path-effect
       effect="envelope"
       id="path-effect16"
       is_visible="true"
       lpeversion="1"
       yy="true"
       xx="true"
       bendpath1="M 100.64369,-50.29061 289.25361,0.24758686"
       bendpath2="M 289.25361,0.24758686 340.59067,187.08362"
       bendpath3="m 151.96035,137.14786 188.63032,49.93576"
       bendpath4="m 100.64369,-50.29061 51.31666,187.43847"
       bendpath1-nodetypes="cc"
       bendpath3-nodetypes="cc"
       bendpath2-nodetypes="cc"
       bendpath4-nodetypes="cc" /><inkscape:path-effect
       effect="envelope"
       id="path-effect10"
       is_visible="true"
       lpeversion="1"
       yy="true"
       xx="true"
       bendpath1="M 256,304.36065 425.10597,206.73042"
       bendpath2="m 425.10639,206.72806 -7.2e-4,195.2658"
       bendpath3="M 256.00096,499.62891 425.10567,401.99386"
       bendpath4="m 255.97732,305.77708 0.0217,193.85183"
       bendpath1-nodetypes="cc"
       bendpath3-nodetypes="cc"
       bendpath2-nodetypes="cc"
       bendpath4-nodetypes="cc" /><inkscape:path-effect
       effect="envelope"
       id="path-effect9"
       is_visible="true"
       lpeversion="1"
       yy="true"
       xx="true"
       bendpath1="M 16.346006,29.827918 71.639391,61.411264"
       bendpath2="M 71.639391,61.411264 71.393317,125.17366"
       bendpath3="M 16.345349,93.391279 71.392695,125.17366"
       bendpath4="m 16.346006,29.827918 -6.57e-4,63.563361"
       bendpath1-nodetypes="cc"
       bendpath3-nodetypes="cc"
       bendpath2-nodetypes="cc"
       bendpath4-nodetypes="cc" /><linearGradient
       id="linearGradient8"
       inkscape:collect="always"><stop
         style="stop-color:#000000;stop-opacity:1;"
         offset="0"
         id="stop8" /><stop
         style="stop-color:#000000;stop-opacity:0;"
         offset="1"
         id="stop9" /></linearGradient><inkscape:perspective
       sodipodi:type="inkscape:persp3d"
       inkscape:vp_x="0 : 256 : 1"
       inkscape:vp_y="0 : 1000 : 0"
       inkscape:vp_z="512 : 256 : 1"
       inkscape:persp3d-origin="256 : 170.66667 : 1"
       id="perspective1" /><linearGradient
       inkscape:collect="always"
       xlink:href="#linearGradient8"
       id="linearGradient9"
       x1="19.161435"
       y1="69.006502"
       x2="69.713286"
       y2="69.006502"
       gradientUnits="userSpaceOnUse" /></defs><g
     inkscape:label="Layer 1"
     inkscape:groupmode="layer"
     id="layer1"><path
       d="m 16.328706,30.618567 c 0.372357,0.211976 6.767198,3.859572 7.139555,4.071548 1.407354,0.803684 2.542674,2.206646 3.405104,4.208118 0.86955,2.005621 1.586416,4.580687 2.15009,7.72564 0.563709,3.145156 0.970676,6.661851 1.221387,10.552034 0.250685,3.889786 0.373629,7.931633 0.369392,12.124849 -0.0066,6.569855 -0.202111,11.564612 -0.58657,14.981831 -0.37738,3.39332 -0.902238,6.12786 -1.57452,8.203558 -0.672227,2.04766 -1.392815,3.255235 -2.161532,3.623207 -1.050836,0.513018 -2.002172,0.523401 -2.854246,0.03178 0.5334,0.307757 -7.642394,-4.403825 -7.108995,-4.096068 0.0084,-20.470716 0.0091,-40.945844 3.35e-4,-61.426495 z m 4.803813,16.650266 c -0.0042,11.187212 -0.0081,22.37761 -0.01159,33.571391 0.0108,0.0062 1.163207,0.668031 1.174011,0.674234 1.001257,0.575165 1.713572,0.551279 2.137185,-0.07229 0.423602,-0.651491 0.755981,-1.998771 0.997148,-4.041698 0.241193,-2.070958 0.363352,-5.566477 0.366658,-10.485592 0.0044,-6.512611 -0.260563,-11.121007 -0.796165,-13.831403 -0.53546,-2.709676 -1.425362,-4.41995 -2.669275,-5.130505 0.01196,0.0068 -1.209927,-0.690968 -1.197967,-0.684136 z m 12.222801,-6.92786 c -1.007039,-0.575774 5.823229,3.329189 4.81619,2.753415 -2.6e-4,0.412829 -0.09374,61.088982 -0.094,61.501812 -0.472994,-0.27319 -4.322506,-2.49692 -4.7955,-2.7701 -9.83e-4,0.48817 0.07429,-61.973297 0.07331,-61.485127 z m 18.533274,47.019805 c -0.0018,-0.0032 4.18769,7.45907 4.185908,7.455898 -0.295098,4.515474 -0.75016,8.167524 -1.365466,10.956524 -0.615262,2.78881 -1.376464,4.72183 -2.283124,5.79899 -0.899622,1.08123 -2.043039,1.22158 -3.430132,0.4212 -1.682885,-0.97105 -3.056192,-2.73203 -4.121363,-5.28232 -1.057925,-2.57393 -1.968713,-6.53568 -2.73409,-11.881785 -0.765319,-5.345704 -1.142633,-11.839995 -1.12938,-19.475887 0.01767,-10.181071 0.712529,-17.602338 2.084621,-22.271558 1.379168,-4.693018 3.319542,-6.325928 5.823513,-4.896534 1.959134,1.118374 3.495537,3.561856 4.606287,7.332429 1.118141,3.775692 1.939929,9.061282 2.46592,15.865806 0.333389,-0.102585 -4.579776,1.409027 -4.246387,1.306442 -0.143638,-1.959547 -0.295679,-3.419237 -0.456047,-4.379466 -0.264899,-1.608336 -0.590769,-2.915168 -0.977554,-3.920727 -0.386778,-1.005542 -0.820455,-1.64576 -1.300884,-1.920786 -1.088073,-0.622877 -1.925299,0.633468 -2.511543,3.769018 -0.443185,2.321827 -0.670343,6.237268 -0.68176,11.749175 -0.01414,6.826569 0.237179,11.66756 0.753132,14.515154 0.51614,2.820282 1.246068,4.502752 2.190471,5.046607 0.916195,0.527612 1.609435,-0.09694 2.079805,-1.873675 0.477419,-1.772678 0.826765,-4.544417 1.048073,-8.314505 z m 6.61888,-32.652815 c -2.941221,-1.679074 15.81937,9.041689 12.878149,7.362614 -0.004,1.162636 -0.04518,11.993689 -0.04913,13.156324 -0.417837,-0.240519 -7.634382,-4.384566 -8.052219,-4.625085 -0.0043,1.312152 -0.02809,8.473209 -0.03235,9.78536 -0.485556,-0.279045 7.949095,4.575357 7.463539,4.296311 0.0013,-0.343829 -0.04942,12.910529 -0.04808,12.5667 -0.345688,-0.199849 -7.111166,-4.102213 -7.456855,-4.302062 -0.04376,13.446585 0.0042,-1.301483 -0.03954,12.145105 -0.63214,-0.36463 8.897388,5.14054 8.265248,4.77592 0.01166,-3.11159 -0.06669,17.06563 -0.05503,13.95404 -1.256155,-0.72765 -11.799037,-6.81486 -13.055193,-7.54251 -0.0013,0.35542 0.182765,-61.928134 0.181446,-61.572717 z"
       id="text8"
       style="font-size:21.3333px;font-family:'Arial Black';-inkscape-font-specification:'Arial Black, ';text-align:center;text-anchor:middle;fill:#002e25;stroke-width:3;stroke-linejoin:round"
       aria-label="DICE"
       inkscape:path-effect="#path-effect9"
       inkscape:original-d="m 17.347811,61.67168 h 7.010405 q 2.072914,0 3.343745,0.5625 1.281248,0.562499 2.11458,1.61458 0.833332,1.052082 1.208331,2.447913 0.375,1.395831 0.375,2.958329 0,2.447913 -0.562499,3.802077 -0.552083,1.343748 -1.541665,2.260413 -0.989581,0.906249 -2.124996,1.208332 -1.552081,0.416666 -2.812496,0.416666 h -7.010405 z m 4.718742,3.458328 v 8.343737 h 1.156248 q 1.479165,0 2.104164,-0.322916 0.624999,-0.333333 0.979165,-1.145832 0.354166,-0.822915 0.354166,-2.656245 0,-2.42708 -0.791666,-3.322912 -0.791665,-0.895832 -2.624995,-0.895832 z M 34.066534,61.67168 h 4.729159 v 15.27081 h -4.729159 z m 18.281221,9.031236 4.13541,1.249998 q -0.416666,1.739581 -1.312498,2.906246 -0.895832,1.166664 -2.229163,1.760413 -1.322914,0.59375 -3.374994,0.59375 -2.48958,0 -4.072911,-0.718749 -1.572914,-0.729166 -2.718745,-2.55208 -1.145832,-1.822913 -1.145832,-4.666659 0,-3.791661 2.010414,-5.822907 2.02083,-2.041664 5.708324,-2.041664 2.885412,0 4.531243,1.166665 1.656247,1.166665 2.458329,3.583328 l -4.16666,0.927082 q -0.21875,-0.697916 -0.458333,-1.020832 -0.395832,-0.541666 -0.968748,-0.833332 -0.572916,-0.291666 -1.281248,-0.291666 -1.604164,0 -2.458329,1.291664 -0.645833,0.958332 -0.645833,3.010412 0,2.541663 0.770832,3.489578 0.770832,0.937498 2.166664,0.937498 1.354164,0 2.041663,-0.760415 0.697916,-0.760415 1.010415,-2.20833 z m 6.416656,-9.031236 h 12.645814 v 3.260412 H 63.49357 v 2.427079 h 7.343739 V 70.47375 H 63.49357 v 3.010412 h 8.145821 v 3.458328 h -12.87498 z"
       transform="matrix(4.1182002,0,0,4.1182002,-47.042169,-6.0904306)" /><path
       d="m 255.72173,302.98072 c 5.46843,-3.27165 10.93685,-6.5253 16.40475,-9.7633 2.73455,-1.61936 4.82809,1.86376 6.28461,10.40468 1.46891,8.53032 2.20297,19.70236 2.20267,33.48136 -2.6e-4,11.55621 -0.52224,21.74624 -1.56641,30.59384 -0.69609,5.89815 -1.71459,10.8299 -3.05545,14.79965 2.03768,2.16339 3.53388,7.07748 4.48875,14.73517 0.96776,7.5617 1.45222,17.52369 1.45336,29.88611 9.2e-4,10.06708 -0.33995,19.32061 -1.02267,27.7612 -0.68269,8.44043 -1.61703,15.35274 -2.80291,20.73059 -0.73476,3.34644 -1.84342,6.11284 -3.32609,8.29805 -1.97259,2.91113 -3.28118,4.55268 -3.92586,4.92501 0.38222,-0.22075 -15.50615,8.95625 -15.12392,8.7355 4e-5,0.50521 -0.0108,-194.08264 -0.0108,-194.58786 z m 8.83729,71.52516 c 0.012,-0.007 3.79872,-2.2422 3.81073,-2.2493 1.36695,-0.80627 2.31473,-2.95718 2.84331,-6.45655 0.54149,-3.59569 0.81213,-8.45051 0.81208,-14.57261 -4e-5,-5.67882 -0.27077,-9.96258 -0.81232,-12.84351 -0.52872,-2.8889 -1.45704,-3.94183 -2.78543,-3.15474 0.0126,-0.007 -3.88149,2.30199 -3.86893,2.29455 0,0.0368 5.6e-4,37.01895 5.6e-4,36.98216 z m 0.008,76.22272 c 0.0172,-0.01 4.45063,-2.58957 4.46784,-2.59959 1.50865,-0.87753 2.57216,-3.30494 3.19074,-7.28333 0.61853,-4.06639 0.92748,-9.18805 0.92683,-15.36406 -6e-4,-5.7349 -0.31054,-10.14236 -0.92984,-13.22155 -0.60644,-3.17511 -1.67683,-4.31314 -3.21137,-3.41393 0.0169,-0.01 -4.46575,2.61839 -4.44881,2.60847 9.5e-4,8.68988 0.004,30.5841 0.005,39.27399 z m 39.39786,-13.18272 c 0.13102,-0.0758 -10.11059,5.85435 -9.97957,5.77852 0.098,-2.35338 -1.46939,35.29733 -1.37135,32.94395 0.17377,-0.10035 -9.12811,5.27116 -8.95433,5.17081 12.45167,-235.18715 -1.79804,33.9045 10.65363,-201.28265 0.10695,-0.0626 9.44791,-5.52006 9.55486,-5.58268 2.08463,37.48882 8.5731,151.55339 10.65773,189.04222 0.26167,-0.15109 -9.42867,5.44412 -9.167,5.29303 -0.0637,-1.43505 -1.3303,-29.92814 -1.39397,-31.3632 z m -1.84008,-40.99767 c 0.7114,15.4393 -3.84682,-83.66758 -3.13542,-68.22829 -0.2776,6.42509 -2.83415,65.43718 -3.11175,71.86226 0.0467,-0.0272 6.20044,-3.60677 6.24717,-3.63397 z m 13.21259,-128.64832 c 8.87635,-5.15489 17.75545,-10.28919 26.63127,-15.41055 -1.9e-4,1.62255 -0.003,46.80031 -0.003,48.42285 0.23091,-0.13381 -9.16619,5.31518 -8.93529,5.18136 0,0.0459 0.004,146.8823 0.004,146.83636 0.39223,-0.22646 -9.15306,5.28474 -8.76082,5.05827 0,0.0505 -0.004,-146.75626 -0.004,-146.8068 0.14396,-0.0837 -9.07952,5.28203 -8.93556,5.19836 -6e-5,1.99001 0.004,-50.46986 0.004,-48.47985 z m 28.60391,-16.54859 c 3.28872,-1.89701 23.34146,-13.44433 26.63019,-15.34135 -1.3e-4,1.6613 -0.002,46.68286 -0.002,48.34416 16.2018,-9.37404 -25.13693,14.54385 -8.93512,5.1698 0,0.0312 0.003,146.92272 0.003,146.89155 -1.26633,0.73114 -7.49446,4.32703 -8.76079,5.05816 0,0.0357 -0.003,-146.84351 -0.003,-146.87916 0.36917,-0.21372 -9.30434,5.38835 -8.93517,5.17463 -6e-5,2.02041 0.003,-50.43819 0.003,-48.41779 z m 30.59472,-17.62409 c -0.78355,0.45119 9.54424,-5.49697 8.76069,-5.04579 -10e-6,0.11793 -3.8e-4,147.30646 -3.7e-4,147.18853 -0.86453,0.49962 14.5378,-8.40301 13.67327,-7.90339 -1.4e-4,-9.61364 7.5e-4,57.66228 6.1e-4,48.04864 17.53108,-10.12189 -39.9649,23.07448 -22.43382,12.95258 0,0.14765 -3.8e-4,-195.09292 -3.8e-4,-195.24057 z m 26.39834,-15.21868 c 7.82683,-4.52065 15.65187,-9.05062 23.47917,-13.59967 4e-5,-64.52764 -6e-5,106.2182 -2e-5,41.69055 -0.34302,0.19985 -14.35624,8.34921 -14.69925,8.54905 0,0.002 -3e-5,31.03464 -3e-5,31.0322 -0.34519,0.20046 13.98064,-8.12819 13.63545,-7.92772 0,0.95157 -9e-5,38.87144 -9e-5,39.82301 -0.29866,0.17343 -13.33652,7.73763 -13.63517,7.91106 3e-5,5.85147 2.3e-4,32.6176 2.7e-4,38.46907 -0.41209,0.23835 15.53608,-8.99 15.12399,-8.75165 3e-5,-8.02672 -1.7e-4,52.24735 -1.3e-4,44.22063 -2.23384,1.28971 -21.66989,12.5114 -23.90373,13.80111 0,0.0699 -4.6e-4,-195.14778 -4.6e-4,-195.21764 z"
       id="text9"
       style="font-size:38.3415px;font-family:'Arial Black';-inkscape-font-specification:'Arial Black, ';text-align:center;text-anchor:middle;fill:#002e25;stroke-width:5.39178;stroke-linejoin:round"
       aria-label="BATTLE"
       inkscape:path-effect="#path-effect10"
       inkscape:original-d="m 258.70289,312.46963 h 15.87577 q 3.96895,0 6.08447,1.96575 2.13424,1.96575 2.13424,4.86757 0,2.43379 -1.51643,4.17488 -1.01096,1.16073 -2.95799,1.8347 2.95799,0.71142 4.34337,2.45251 1.40411,1.72237 1.40411,4.34337 0,2.13425 -0.99224,3.8379 -0.99223,1.70365 -2.7146,2.69589 -1.06713,0.6178 -3.22009,0.89862 -2.86438,0.37443 -3.80045,0.37443 h -14.64016 z m 8.55569,10.76482 h 3.68812 q 1.98448,0 2.75206,-0.67397 0.7863,-0.69269 0.7863,-1.98447 0,-1.19817 -0.7863,-1.87214 -0.76758,-0.67398 -2.69589,-0.67398 h -3.74429 z m 0,10.78355 h 4.32465 q 2.19041,0 3.08904,-0.76758 0.89863,-0.7863 0.89863,-2.0968 0,-1.21689 -0.89863,-1.94703 -0.87991,-0.74886 -3.10776,-0.74886 h -4.30593 z m 38.13556,1.36667 h -9.66026 l -1.32922,4.53058 h -8.66802 l 10.31551,-27.44562 h 9.24839 l 10.31551,27.44562 h -8.87396 z m -1.77853,-5.9347 -3.03287,-9.8662 -3.01415,9.8662 z m 12.78674,-16.98034 h 25.77941 v 6.77716 h -8.6493 v 20.66846 h -8.48081 v -20.66846 h -8.6493 z m 27.689,0 h 25.77942 v 6.77716 h -8.64931 v 20.66846 h -8.48081 v -20.66846 h -8.6493 z m 29.61731,0 h 8.48081 v 20.68718 h 13.23606 v 6.75844 h -21.71687 z m 25.55476,0 h 22.72782 v 5.85981 h -14.22829 v 4.36209 h 13.19861 v 5.59771 h -13.19861 v 5.4105 h 14.64016 v 6.21551 h -23.13969 z"
       transform="matrix(1.3405658,0,0,1.3405658,-77.632822,-163.0234)" /><g
       id="g16"
       inkscape:path-effect="#path-effect16"
       transform="matrix(0.94792317,-0.94792317,0.94792317,0.94792317,-19.413501,251.77765)"><path
         style="fill:#c4fff3;fill-opacity:1;stroke:#000000;stroke-width:3;stroke-linejoin:round;stroke-dasharray:none;stroke-opacity:1"
         id="rect10"
         width="80.531372"
         height="130.30249"
         x="187.47864"
         y="-3.6512456"
         sodipodi:type="rect"
         d="m 151.63944,-36.61837 c 28.7736,7.706971 57.54806,15.417069 86.3234,23.130391 7.51818,27.557568 43.72465,159.456989 51.33153,186.999869 -28.77845,-7.62141 -57.55602,-15.2396 -86.33273,-22.85467 -7.58897,-27.52378 -43.8216,-159.7371771 -51.3222,-187.27559 z" /><g
         id="g15"
         transform="translate(0,1.5000005)"><path
           style="fill:none;fill-opacity:1;stroke:#000000;stroke-width:3;stroke-linecap:round;stroke-linejoin:round;stroke-dasharray:none;stroke-opacity:1"
           id="path10"
           sodipodi:type="arc"
           sodipodi:cx="255.72173"
           sodipodi:cy="60"
           sodipodi:rx="60"
           sodipodi:ry="60"
           sodipodi:start="5.4977871"
           sodipodi:end="0.78539816"
           sodipodi:arc-type="arc"
           d="m 279.20147,26.262935 c 16.49734,19.363351 29.30302,43.05208 35.57217,65.868084 6.26929,22.816531 5.48985,42.898021 -2.14288,55.838801"
           sodipodi:open="true" /><path
           style="fill:none;fill-opacity:1;stroke:#000000;stroke-width:3;stroke-linecap:round;stroke-linejoin:round;stroke-dasharray:none;stroke-opacity:1"
           id="circle11"
           sodipodi:type="arc"
           sodipodi:cx="255.72173"
           sodipodi:cy="60"
           sodipodi:rx="49.25705"
           sodipodi:ry="49.25705"
           sodipodi:start="5.4977871"
           sodipodi:end="0.78539816"
           sodipodi:arc-type="arc"
           d="m 274.04722,34.984758 c 13.54569,15.897777 24.05492,35.349361 29.20151,54.084052 5.14671,18.73513 4.50999,35.22282 -1.75817,45.84522"
           sodipodi:open="true" /><path
           style="fill:none;fill-opacity:1;stroke:#000000;stroke-width:3;stroke-linecap:round;stroke-linejoin:round;stroke-dasharray:none;stroke-opacity:1"
           id="circle12"
           sodipodi:type="arc"
           sodipodi:cx="255.72173"
           sodipodi:cy="60"
           sodipodi:rx="38.247704"
           sodipodi:ry="38.247704"
           sodipodi:start="5.4977871"
           sodipodi:end="0.78539816"
           sodipodi:arc-type="arc"
           d="m 268.76557,43.925691 c 10.51887,12.345109 18.67694,27.452174 22.67316,42.002574 3.99631,14.550705 3.50385,27.355195 -1.36401,35.602765"
           sodipodi:open="true" /></g><g
         id="g14"
         transform="translate(-36.5,1.5000005)"><path
           style="fill:none;fill-opacity:1;stroke:#000000;stroke-width:3;stroke-linecap:round;stroke-linejoin:round;stroke-dasharray:none;stroke-opacity:1"
           id="path12"
           sodipodi:type="arc"
           sodipodi:cx="-236.26694"
           sodipodi:cy="60"
           sodipodi:rx="60"
           sodipodi:ry="60"
           sodipodi:start="5.4977871"
           sodipodi:end="0.78539816"
           sodipodi:arc-type="arc"
           d="m -164.76388,-14.09615 c 7.62686,12.9542335 8.37726,33.098762 2.11013,55.990039 -6.26726,22.891796 -19.03736,46.648545 -35.52879,66.030781"
           sodipodi:open="true"
           transform="scale(-1,1)" /><path
           style="fill:none;fill-opacity:1;stroke:#000000;stroke-width:3;stroke-linecap:round;stroke-linejoin:round;stroke-dasharray:none;stroke-opacity:1"
           id="path13"
           sodipodi:type="arc"
           sodipodi:cx="-236.26694"
           sodipodi:cy="60"
           sodipodi:rx="49.25705"
           sodipodi:ry="49.25705"
           sodipodi:start="5.4977871"
           sodipodi:end="0.78539816"
           sodipodi:arc-type="arc"
           d="m -175.89465,-0.99457967 c 6.25922,10.63614707 6.87843,27.17204767 1.73336,45.96078267 -5.1452,18.789169 -15.63243,38.28797 -29.16891,54.198406"
           sodipodi:open="true"
           transform="scale(-1,1)" /><path
           style="fill:none;fill-opacity:1;stroke:#000000;stroke-width:3;stroke-linecap:round;stroke-linejoin:round;stroke-dasharray:none;stroke-opacity:1"
           id="path14"
           sodipodi:type="arc"
           sodipodi:cx="-236.26694"
           sodipodi:cy="60"
           sodipodi:rx="38.247704"
           sodipodi:ry="38.247704"
           sodipodi:start="5.4977871"
           sodipodi:end="0.78539816"
           sodipodi:arc-type="arc"
           d="m -187.30203,12.428407 c 4.85955,8.259519 5.34232,21.097605 1.34714,35.683874 -3.99526,14.586577 -12.14078,29.724162 -22.651,42.077867"
           sodipodi:open="true"
           transform="scale(-1,1)" /></g></g></g></svg>
